<svg xmlns="http://www.w3.org/2000/svg" viewBox="0 0 279928 333333" shape-rendering="geometricPrecision" text-rendering="geometricPrecision" image-rendering="optimizeQuality" fill-rule="evenodd" clip-rule="evenodd"><path d="M46555 0h224405c4933 0 8969 4041 8969 8976v250444c-394 6994-9431 7154-19193 6736H43252c-13504 0-24545 11049-24545 24544 0 13504 11049 24545 24545 24545l217484-2v-26114l19193 2v33201c0 6053-4945 11000-10998 11000l-224750-2C19882 333330 1 313449 1 289149V46561C1 20953 20947-2 46556-2zm157933 91395v32602h-45008v100451h-32602V123997H81871V91395h45007V51583h32602v39812h45008z"/></svg>